<svg width="24" height="24" viewBox="0 0 24 24" fill="none" xmlns="http://www.w3.org/2000/svg">
<g clip-path="url(#clip0_1_457)">
<path fill-rule="evenodd" clip-rule="evenodd" d="M5.33333 0C2.38781 0 0 2.38781 0 5.33333V18.6667C0 21.6121 2.38781 24 5.33333 24H12.006V14H9.33333V10.5537L12.006 10.5525L12.002 8.52251C12.002 5.71125 12.8127 4 16.3332 4H19.9655V7.44749H17.4324C16.0608 7.44749 15.9957 7.92875 15.9957 8.82751L15.9904 10.5525H20L19.6119 13.9988L15.9931 14L15.9904 24H18.6667C21.6121 24 24 21.6121 24 18.6667V5.33333C24 2.38781 21.6121 0 18.6667 0H5.33333Z" fill="#939DAE"/>
</g>
<defs>
<clipPath id="clip0_1_457">
<rect width="24" height="24" fill="white"/>
</clipPath>
</defs>
</svg>
