<svg width="24" height="24" viewBox="0 0 24 24" fill="none" xmlns="http://www.w3.org/2000/svg">
<g clip-path="url(#clip0_1_461)">
<path fill-rule="evenodd" clip-rule="evenodd" d="M5.33333 0C2.38781 0 0 2.38781 0 5.33333V18.6667C0 21.6121 2.38781 24 5.33333 24H18.6667C21.6121 24 24 21.6121 24 18.6667V5.33333C24 2.38781 21.6121 0 18.6667 0H5.33333ZM7.636 18.6667V8.7658H4.198V18.6667H7.636ZM4 5.70913C4 4.73947 4.771 4 5.938 4C7.115 4 7.844 4.73947 7.855 5.70913C7.865 6.65768 7.115 7.41729 5.917 7.41729H5.896C4.74 7.41729 4 6.65768 4 5.70913ZM12.958 10.1747C13.4091 9.49664 14.2229 8.53561 16.052 8.53561C18.312 8.53561 20 9.95413 20 12.9916V18.6667H16.572V13.3715C16.572 12.0431 16.072 11.1338 14.834 11.1338C13.884 11.1338 13.323 11.7429 13.072 12.3327C12.99 12.5514 12.958 12.842 12.958 13.1413V18.6667H9.531C9.573 9.69517 9.531 8.7658 9.531 8.7658H12.958V10.1747Z" fill="#939DAE"/>
</g>
<defs>
<clipPath id="clip0_1_461">
<rect width="24" height="24" fill="white"/>
</clipPath>
</defs>
</svg>
