<svg width="24" height="24" viewBox="0 0 24 24" fill="none" xmlns="http://www.w3.org/2000/svg">
<g clip-path="url(#clip0_1_469)">
<path fill-rule="evenodd" clip-rule="evenodd" d="M5.33333 0C2.38781 0 0 2.38781 0 5.33333V18.6667C0 21.6121 2.38781 24 5.33333 24H18.6667C21.6121 24 24 21.6121 24 18.6667V5.33333C24 2.38781 21.6121 0 18.6667 0H5.33333ZM18.3661 9.09471C18.3661 8.94792 18.3661 8.80209 18.3557 8.65628C18.9951 8.17493 19.5509 7.58667 20 6.91611C19.3993 7.18565 18.7625 7.36111 18.1111 7.43661C18.7959 7.02005 19.3088 6.36097 19.5529 5.58345C18.9103 5.97551 18.2061 6.25029 17.472 6.3956C16.8725 5.73892 16.0197 5.33333 15.0757 5.33333C14.6452 5.3332 14.2188 5.42011 13.8209 5.58909C13.4232 5.75807 13.0617 6.0058 12.7572 6.31813C12.4527 6.63048 12.2111 7.00132 12.0463 7.40945C11.8815 7.8176 11.7967 8.25505 11.7967 8.69684C11.7978 8.95625 11.8252 9.21485 11.8786 9.46843C10.574 9.40081 9.29779 9.0524 8.13292 8.44581C6.96807 7.83923 5.94057 6.98804 5.11717 5.94752C4.69439 6.68872 4.56395 7.5678 4.7526 8.40452C4.94124 9.24124 5.43468 9.97224 6.13176 10.4476C5.59341 10.4264 5.08612 10.2699 4.64941 10.0208V10.0623C4.64872 10.8396 4.91025 11.5931 5.3896 12.195C5.86896 12.7969 6.53657 13.2099 7.27905 13.364C7.00517 13.4364 6.71059 13.478 6.41505 13.478C6.20329 13.478 6 13.4567 5.79765 13.4259C6.00781 14.0941 6.41625 14.6784 6.96585 15.0968C7.51545 15.5153 8.17876 15.7472 8.86305 15.7599C7.702 16.6944 6.26812 17.2005 4.79247 17.1968C4.51859 17.1968 4.26447 17.1872 4 17.1563C5.50201 18.1468 7.25079 18.6712 9.03624 18.6667C15.0664 18.6667 18.3661 13.5417 18.3661 9.09471Z" fill="#939DAE"/>
</g>
<defs>
<clipPath id="clip0_1_469">
<rect width="24" height="24" fill="white"/>
</clipPath>
</defs>
</svg>
