<svg width="24" height="24" viewBox="0 0 24 24" fill="none" xmlns="http://www.w3.org/2000/svg">
<g clip-path="url(#clip0_1_465)">
<path fill-rule="evenodd" clip-rule="evenodd" d="M5.33333 0C2.38781 0 0 2.38781 0 5.33333V18.6667C0 21.6121 2.38781 24 5.33333 24H18.6667C21.6121 24 24 21.6121 24 18.6667V5.33333C24 2.38781 21.6121 0 18.6667 0H5.33333ZM6.16336 6.86327C9.87313 6.57065 14.1919 6.63349 17.8347 6.86327C19.1396 6.90829 19.7755 8.16787 19.8635 9.16672C20.0455 11.2657 20.0455 12.59 19.8635 14.688C19.7765 15.6869 18.9696 16.9633 17.8356 17.1481C14.2148 17.4108 9.91813 17.3788 6.16436 17.1481C4.99244 17.0093 4.22348 15.6869 4.13649 14.688C3.95451 12.59 3.95451 11.3961 4.13649 9.29803C4.22248 8.29917 5.01144 6.98425 6.16336 6.86327ZM9.99912 9.27552V14.6543L14.9988 11.9654L9.99912 9.27552Z" fill="#939DAE"/>
</g>
<defs>
<clipPath id="clip0_1_465">
<rect width="24" height="24" fill="white"/>
</clipPath>
</defs>
</svg>
